<?xml version="1.0" encoding="UTF-8" standalone="no"?>
<!-- Created with Inkscape (http://www.inkscape.org/) -->

<svg
   width="297mm"
   height="210mm"
   viewBox="0 0 297 210"
   version="1.1"
   id="svg5"
   sodipodi:docname="FAST_LAB_VECTOR.svg"
   inkscape:version="1.1.1 (3bf5ae0d25, 2021-09-20)"
   xmlns:inkscape="http://www.inkscape.org/namespaces/inkscape"
   xmlns:sodipodi="http://sodipodi.sourceforge.net/DTD/sodipodi-0.dtd"
   xmlns="http://www.w3.org/2000/svg"
   xmlns:svg="http://www.w3.org/2000/svg">
  <sodipodi:namedview
     id="namedview7"
     pagecolor="#ffffff"
     bordercolor="#666666"
     borderopacity="1.0"
     inkscape:pageshadow="2"
     inkscape:pageopacity="0.0"
     inkscape:pagecheckerboard="0"
     inkscape:document-units="mm"
     showgrid="false"
     inkscape:zoom="0.86247511"
     inkscape:cx="466.68013"
     inkscape:cy="404.06963"
     inkscape:window-width="1920"
     inkscape:window-height="1017"
     inkscape:window-x="1072"
     inkscape:window-y="831"
     inkscape:window-maximized="1"
     inkscape:current-layer="layer1" />
  <defs
     id="defs2" />
  <g
     inkscape:label="Layer 1"
     inkscape:groupmode="layer"
     id="layer1">
    <path
       style="fill:#000000;stroke-width:0.51131"
       d="M 99.525611,187.48363 C -0.36000444,171.55659 -17.454466,137.33847 53.10452,94.562153 60.995723,89.778122 84.317878,77.437638 84.700671,77.84364 c 0.717283,0.760762 3.603011,8.521533 3.27575,8.809672 -0.201512,0.177426 -2.93568,1.46732 -6.07593,2.866438 -95.774452,42.6716 -87.1240571,76.61914 25.072359,98.39375 6.36965,1.2362 1.09029,0.93146 -7.447239,-0.42987 z m -52.87536,-21.07278 v -2.89619 h 2.759953 c 1.713543,0 2.643617,0.19965 2.453111,0.52658 -0.168764,0.28962 -1.187326,0.52658 -2.263471,0.52658 -1.076146,0 -1.956629,0.23696 -1.956629,0.52658 0,0.28962 0.433649,0.52658 0.963664,0.52658 0.530015,0 1.101743,0.23696 1.270507,0.52658 0.174028,0.29866 -0.243086,0.52658 -0.963664,0.52658 -1.024219,0 -1.270507,0.2552 -1.270507,1.31645 0,0.72405 -0.223417,1.31645 -0.496482,1.31645 -0.273065,0 -0.496482,-1.30329 -0.496482,-2.89619 z m 6.454269,0.52658 c 0,-1.30329 0.223417,-2.36961 0.496482,-2.36961 0.273066,0 0.496483,0.82936 0.496483,1.84303 0,1.75526 0.08275,1.84303 1.737688,1.84303 0.955728,0 1.737688,0.23696 1.737688,0.52658 0,0.28962 -1.005377,0.52658 -2.234171,0.52658 h -2.23417 z m 5.461305,0 c 0,-1.30329 0.223417,-2.36961 0.496482,-2.36961 0.273066,0 0.496483,1.06632 0.496483,2.36961 0,1.30329 -0.223417,2.36961 -0.496483,2.36961 -0.273065,0 -0.496482,-1.06632 -0.496482,-2.36961 z m 3.332771,2.04283 c -0.194631,-0.20643 -0.353877,-1.28368 -0.353877,-2.39389 v -2.01855 h 2.730652 c 1.501859,0 2.730652,0.23696 2.730652,0.52658 0,0.28962 -1.005376,0.52658 -2.23417,0.52658 -2.052125,0 -2.23417,0.10726 -2.23417,1.31645 0,1.15346 0.215141,1.31645 1.737688,1.31645 0.955728,0 1.737688,-0.23696 1.737688,-0.52658 0,-0.28962 -0.335126,-0.52658 -0.744724,-0.52658 -0.409597,0 -0.744723,-0.2041 -0.744723,-0.45356 0,-0.24946 0.570374,-0.33791 1.267494,-0.19657 0.952308,0.19308 1.23009,0.53501 1.117086,1.37507 -0.153488,1.14099 -4.137406,1.97966 -5.009596,1.0546 z m 7.093356,-2.04283 c 0,-1.30329 0.223417,-2.36961 0.496483,-2.36961 0.273065,0 0.496482,0.35544 0.496482,0.78987 0,0.5284 0.498215,0.78987 1.505026,0.78987 0.879807,0 1.62375,-0.32813 1.790807,-0.78987 0.56519,-1.56215 1.172507,-0.7439 1.172507,1.57974 0,1.30329 -0.223417,2.36961 -0.496482,2.36961 -0.273065,0 -0.496482,-0.47392 -0.496482,-1.05316 0,-0.85256 -0.33099,-1.05316 -1.737688,-1.05316 -1.406698,0 -1.737688,0.2006 -1.737688,1.05316 0,0.57924 -0.223417,1.05316 -0.496482,1.05316 -0.273066,0 -0.496483,-1.06632 -0.496483,-2.36961 z m 8.936681,0.52658 c 0,-1.49197 -0.189135,-1.84303 -0.992965,-1.84303 -0.54613,0 -0.992964,-0.23696 -0.992964,-0.52658 0,-0.28962 1.117085,-0.52658 2.482411,-0.52658 1.365326,0 2.482411,0.23696 2.482411,0.52658 0,0.28962 -0.446834,0.52658 -0.992964,0.52658 -0.80383,0 -0.992965,0.35106 -0.992965,1.84303 0,1.01367 -0.223417,1.84303 -0.496482,1.84303 -0.273065,0 -0.496482,-0.82936 -0.496482,-1.84303 z m 15.887432,1.51936 c 0,-1.08102 2.772317,-5.46871 3.455348,-5.46871 0.675945,0 1.73732,1.68433 3.401187,5.39744 0.0973,0.21722 -0.15288,0.39494 -0.55601,0.39494 -0.403142,0 -0.861582,-0.35544 -1.018763,-0.78987 -0.177036,-0.48932 -0.932682,-0.78987 -1.985929,-0.78987 -1.053242,0 -1.808888,0.30055 -1.985929,0.78987 -0.275294,0.7609 -1.309904,1.12912 -1.309904,0.4662 z m 3.935962,-3.43353 c -0.453268,-0.89828 -0.65487,-0.97767 -1.002829,-0.39494 -0.677549,1.13471 -0.535878,1.51924 0.559709,1.51924 0.8779,0 0.936023,-0.14747 0.44312,-1.1243 z m 4.362113,3.43093 c -0.54398,-0.57696 -0.42043,-4.41295 0.14213,-4.41295 0.27306,0 0.49648,0.82936 0.49648,1.84303 0,1.69676 0.11821,1.84303 1.48945,1.84303 1.37123,0 1.48945,-0.14627 1.48945,-1.84303 0,-1.01367 0.23626,-1.84303 0.52503,-1.84303 0.31063,0 0.46268,0.91384 0.37236,2.23797 -0.15017,2.20132 -3.13455,3.639 -4.5149,2.17498 z m 8.58233,-1.51676 c 0,-1.49197 -0.18914,-1.84303 -0.99297,-1.84303 -0.54613,0 -0.99296,-0.23696 -0.99296,-0.52658 0,-0.28962 1.24198,-0.52658 2.75995,-0.52658 1.71354,0 2.64362,0.19965 2.45311,0.52658 -0.16876,0.28962 -0.74049,0.52658 -1.27051,0.52658 -0.77034,0 -0.96366,0.36973 -0.96366,1.84303 0,1.01367 -0.22341,1.84303 -0.49648,1.84303 -0.27307,0 -0.49648,-0.82936 -0.49648,-1.84303 z m 4.1911,0.59152 c -0.63436,-2.68072 0.076,-3.48771 3.0699,-3.48771 h 2.72574 l -0.15267,2.23797 -0.15267,2.23796 -2.5907,0.15858 c -2.39898,0.14685 -2.61355,0.062 -2.8996,-1.1468 z m 4.74558,-1.1181 c 0,-1.15346 -0.21514,-1.31645 -1.73769,-1.31645 -1.52255,0 -1.73769,0.16299 -1.73769,1.31645 0,1.15346 0.21514,1.31645 1.73769,1.31645 1.52255,0 1.73769,-0.16299 1.73769,-1.31645 z m 2.97889,0 c 0,-2.72314 0.34864,-2.87665 2.39187,-1.05316 0.8113,0.72405 1.6104,1.31645 1.77578,1.31645 0.16538,0 0.30069,-0.5924 0.30069,-1.31645 0,-0.72405 0.22342,-1.31645 0.49648,-1.31645 0.27307,0 0.49649,1.06632 0.49649,2.36961 0,2.80882 -0.19899,2.86596 -2.61754,0.75153 l -1.8508,-1.61808 v 1.61808 c 0,0.88995 -0.22342,1.61808 -0.49649,1.61808 -0.27306,0 -0.49648,-1.06632 -0.49648,-2.36961 z m 7.44724,0.0275 v -2.39713 h 2.7592 2.7592 l -0.15267,2.23797 -0.15267,2.23796 -2.60653,0.15916 -2.60653,0.15917 z m 4.46834,-0.0275 c 0,-1.15346 -0.21514,-1.31645 -1.73769,-1.31645 -1.52255,0 -1.73769,0.16299 -1.73769,1.31645 0,1.15346 0.21514,1.31645 1.73769,1.31645 1.52255,0 1.73769,-0.16299 1.73769,-1.31645 z m 2.97889,0.0311 c 0,-2.71912 0.21385,-2.86588 1.82981,-1.25574 l 1.14908,1.14495 1.14909,-1.14495 c 1.61333,-1.60752 1.82981,-1.46264 1.82981,1.22467 0,1.30329 -0.22342,2.36961 -0.49649,2.36961 -0.27306,0 -0.50145,-0.77012 -0.50752,-1.71139 l -0.011,-1.71138 -0.94392,1.3029 c -0.92822,1.28121 -0.96108,1.28643 -1.9749,0.31332 -1.01249,-0.97183 -1.03098,-0.96979 -1.03098,0.11412 0,0.60703 -0.22341,1.25014 -0.49648,1.42914 -0.30325,0.19878 -0.49648,-0.60887 -0.49648,-2.07524 z m 9.43316,1.18766 c 0,-0.63297 -0.48578,-1.6993 -1.0795,-2.36961 -0.85089,-0.96061 -0.91634,-1.21873 -0.30904,-1.21873 0.42376,0 1.05328,0.36142 1.39894,0.80316 0.56095,0.71688 0.7278,0.70779 1.55328,-0.0845 0.50865,-0.48823 1.03653,-0.76921 1.17306,-0.6244 0.13653,0.14481 -0.19996,0.6935 -0.74777,1.21931 -0.5478,0.52581 -0.996,1.51169 -0.996,2.19085 0,0.67916 -0.22342,1.23484 -0.49649,1.23484 -0.27306,0 -0.49648,-0.51789 -0.49648,-1.15087 z m 16.73721,0.82347 c -0.85049,-0.90204 -0.18302,-1.18133 2.12912,-0.89089 2.05814,0.25853 2.48241,0.16922 2.48241,-0.52254 0,-0.6218 -0.60079,-0.87526 -2.35829,-0.99486 -3.9458,-0.26854 -3.53198,-2.72847 0.49648,-2.95132 2.2113,-0.12233 2.85477,0.0115 2.85477,0.59354 0,0.57914 -0.51233,0.69021 -2.23417,0.48437 -1.41574,-0.16925 -2.23417,-0.0602 -2.23417,0.2977 0,0.31063 0.94953,0.63765 2.11005,0.72671 3.53943,0.27161 3.20371,3.2535 -0.39143,3.4767 -1.37582,0.0854 -2.66046,-0.0133 -2.85477,-0.21941 z m 9.57635,-1.51562 c 0,-1.49197 -0.18913,-1.84303 -0.99296,-1.84303 -0.54613,0 -0.99297,-0.23696 -0.99297,-0.52658 0,-0.28962 1.11709,-0.52658 2.48241,-0.52658 1.36533,0 2.48242,0.23696 2.48242,0.52658 0,0.28962 -0.44684,0.52658 -0.99297,0.52658 -0.80383,0 -0.99296,0.35106 -0.99296,1.84303 0,1.01367 -0.22342,1.84303 -0.49649,1.84303 -0.27306,0 -0.49648,-0.82936 -0.49648,-1.84303 z m 4.46834,-0.52658 v -2.36961 h 2.48241 c 2.31692,0 2.48241,0.0878 2.48241,1.31645 0,0.72405 -0.25804,1.31645 -0.57343,1.31645 -0.32519,0 -0.18441,0.45592 0.32519,1.05316 0.73688,0.8636 0.76458,1.05316 0.1539,1.05316 -0.40959,0 -1.1491,-0.47392 -1.64334,-1.05316 -0.49425,-0.57924 -1.19912,-1.05316 -1.5664,-1.05316 -0.36727,0 -0.66777,0.47392 -0.66777,1.05316 0,0.57924 -0.22342,1.05316 -0.49649,1.05316 -0.27306,0 -0.49648,-1.06632 -0.49648,-2.36961 z m 3.35126,-1.15286 c -0.47787,-0.13244 -1.25983,-0.13244 -1.73769,0 -0.47786,0.13245 -0.0869,0.24082 0.86884,0.24082 0.95573,0 1.34671,-0.10837 0.86885,-0.24082 z m 3.45689,3.19569 c -0.71488,-0.75821 -0.39119,-4.41244 0.39084,-4.41244 0.52013,0 0.74473,0.55584 0.74473,1.84303 0,1.69676 0.11821,1.84303 1.48944,1.84303 1.37124,0 1.48945,-0.14627 1.48945,-1.84303 0,-1.01367 0.23626,-1.84303 0.52503,-1.84303 0.31064,0 0.46269,0.91384 0.37236,2.23797 l -0.15266,2.23796 -2.25266,0.15592 c -1.23896,0.0858 -2.4119,-0.0129 -2.60653,-0.21941 z m 6.88509,-1.0082 c -0.62776,-2.65283 0.0234,-3.4767 2.60811,-3.29965 1.2742,0.0873 2.25658,0.38933 2.18306,0.6712 -0.0735,0.28188 -0.91133,0.44145 -1.8618,0.35459 -1.5839,-0.14473 -1.72814,-0.0391 -1.72814,1.26619 0,1.37187 0.0745,1.41146 2.0317,1.07952 1.53368,-0.26012 1.98054,-0.17981 1.823,0.32763 -0.45593,1.4685 -4.69311,1.13371 -5.05593,-0.39948 z m 8.64846,-0.50805 c 0,-1.4733 -0.19332,-1.84303 -0.96366,-1.84303 -0.53001,0 -1.10174,-0.23696 -1.27051,-0.52658 -0.1905,-0.32693 0.73957,-0.52658 2.45311,-0.52658 1.51798,0 2.75996,0.23696 2.75996,0.52658 0,0.28962 -0.44684,0.52658 -0.99297,0.52658 -0.80383,0 -0.99296,0.35106 -0.99296,1.84303 0,1.01367 -0.22342,1.84303 -0.49648,1.84303 -0.27307,0 -0.49649,-0.82936 -0.49649,-1.84303 z m 4.79933,1.49197 c -0.52724,-0.5592 -0.38283,-4.38816 0.1655,-4.38816 0.27306,0 0.49648,0.82936 0.49648,1.84303 0,1.69676 0.11821,1.84303 1.48945,1.84303 1.37123,0 1.48944,-0.14627 1.48944,-1.84303 0,-1.01367 0.22342,-1.84303 0.49648,-1.84303 0.27307,0 0.49649,1.06632 0.49649,2.36961 v 2.36961 h -2.15143 c -1.18328,0 -2.30037,-0.15797 -2.48241,-0.35106 z m 6.61977,-2.04607 v -2.39713 l 2.5675,0.15917 c 2.68087,0.16619 3.45182,0.8902 2.22205,2.08674 -0.63466,0.61753 -0.62839,0.82002 0.0504,1.62683 0.67701,0.80473 0.68088,0.92152 0.0305,0.92152 -0.4096,0 -1.1491,-0.47392 -1.64334,-1.05316 -0.49425,-0.57924 -1.06136,-1.05316 -1.26026,-1.05316 -0.19889,0 -0.47847,0.47392 -0.62129,1.05316 -0.48366,1.96169 -1.34557,1.1008 -1.34557,-1.34397 z m 6.95075,0.0275 v -2.36961 l 2.60653,0.092 c 2.49198,0.088 2.5138,0.10086 0.49648,0.29357 -2.24592,0.21454 -2.95867,1.19417 -0.86884,1.19417 0.68266,0 1.2412,0.23696 1.2412,0.52658 0,0.28962 -0.55854,0.52658 -1.2412,0.52658 -0.68267,0 -1.24121,0.23696 -1.24121,0.52658 0,0.28962 0.89367,0.52658 1.98593,0.52658 1.09226,0 1.98593,0.23696 1.98593,0.52658 0,0.28962 -1.11709,0.52658 -2.48241,0.52658 h -2.48241 z m 6.2217,1.86993 c -0.20768,-0.35642 0.49387,-0.5535 1.97025,-0.5535 1.40209,0 2.17357,-0.20456 1.98593,-0.52658 -0.16876,-0.28962 -1.07562,-0.52658 -2.01523,-0.52658 -1.50106,0 -1.70838,-0.16326 -1.70838,-1.3453 0,-1.27639 0.12079,-1.33708 2.35829,-1.18481 1.29706,0.0883 2.29813,0.39113 2.22461,0.673 -0.0735,0.28188 -0.91133,0.44145 -1.8618,0.35459 -0.99529,-0.0909 -1.72814,0.0825 -1.72814,0.40901 0,0.31198 0.90862,0.56693 2.02046,0.56693 1.81131,0 2.00404,0.12265 1.86181,1.1848 -0.17423,1.30114 -4.44065,2.09333 -5.1078,0.94842 z m 20.09186,-1.86995 c 0,-1.99454 -0.15254,-2.36961 -0.96367,-2.36961 -0.53001,0 -1.10174,-0.23696 -1.2705,-0.52658 -0.19276,-0.33079 0.91482,-0.52658 2.97889,-0.52658 2.06407,0 3.17165,0.19579 2.97889,0.52658 -0.16876,0.28962 -0.74049,0.52658 -1.2705,0.52658 -0.81113,0 -0.96367,0.37507 -0.96367,2.36961 0,1.75526 -0.19307,2.36961 -0.74472,2.36961 -0.55165,0 -0.74472,-0.61435 -0.74472,-2.36961 z m 4.79933,2.01855 c -0.18205,-0.19307 -0.33099,-1.2594 -0.33099,-2.36961 v -2.01855 l 2.60653,0.0885 c 2.1443,0.0728 2.27636,0.12515 0.74472,0.29508 -1.92057,0.21307 -2.63464,1.19614 -0.86884,1.19614 0.54613,0 0.99296,0.23696 0.99296,0.52658 0,0.28962 -0.44683,0.52658 -0.99296,0.52658 -0.54613,0 -0.99297,0.23696 -0.99297,0.52658 0,0.28962 0.78196,0.52658 1.73769,0.52658 0.95573,0 1.73769,0.23696 1.73769,0.52658 0,0.58076 -4.10515,0.73626 -4.63383,0.17552 z m 6.12328,-0.14667 c 0,-0.30548 0.90685,-0.55543 2.01523,-0.55543 1.21705,0 1.89369,-0.20856 1.70838,-0.52658 -0.16876,-0.28962 -1.07562,-0.52658 -2.01523,-0.52658 -1.49129,0 -1.70838,-0.16729 -1.70838,-1.31645 0,-1.23157 0.16273,-1.31645 2.52378,-1.31645 1.78706,0 2.4639,0.19054 2.31864,0.65274 -0.12865,0.40936 -0.90536,0.58876 -2.08308,0.48114 -1.25794,-0.11495 -1.76789,0.0172 -1.54462,0.40042 0.18333,0.31461 1.11764,0.57202 2.07624,0.57202 1.52349,0 1.72295,0.14916 1.58427,1.1848 -0.17072,1.27491 -4.87523,2.192 -4.87523,0.95037 z m 8.75768,0.13236 c -0.17461,-0.18521 -0.31749,-0.98049 -0.31749,-1.7673 0,-1.01262 -0.32635,-1.54875 -1.11708,-1.83512 -1.4074,-0.5097 1.26177,-0.98198 3.48427,-0.6165 1.31103,0.21559 1.31904,0.23641 0.23935,0.62206 -0.80598,0.28788 -1.11709,0.81319 -1.11709,1.88625 0,1.49322 -0.57946,2.33902 -1.17196,1.71061 z m 4.64734,-2.00424 c 0,-1.30329 0.22341,-2.36961 0.49648,-2.36961 0.27306,0 0.49648,1.06632 0.49648,2.36961 0,1.30329 -0.22342,2.36961 -0.49648,2.36961 -0.27307,0 -0.49648,-1.06632 -0.49648,-2.36961 z m 2.97889,0.0311 c 0,-2.78654 0.10957,-2.83869 2.2783,-1.08424 0.89502,0.72405 1.75392,1.31645 1.90867,1.31645 0.15476,0 0.28137,-0.5924 0.28137,-1.31645 0,-0.72405 0.22342,-1.31645 0.49648,-1.31645 0.59571,0 0.67326,4.03461 0.085,4.42024 -0.22634,0.14836 -1.23172,-0.44731 -2.23417,-1.32371 l -1.82266,-1.59346 v 1.32372 c 0,0.72804 -0.22341,1.47015 -0.49648,1.64915 -0.30325,0.19878 -0.49648,-0.60887 -0.49648,-2.07524 z m 7.16449,1.06373 c -0.61616,-2.60379 -0.15545,-3.18894 2.64569,-3.36029 1.58482,-0.097 2.60188,0.0574 2.60188,0.39493 0,0.30475 -0.89367,0.5541 -1.98593,0.5541 -1.78734,0 -1.98593,0.13164 -1.98593,1.31645 0,1.11167 0.23169,1.31645 1.48945,1.31645 1.61212,0 2.03305,-0.82527 0.6206,-1.21675 -0.53454,-0.14817 -0.34352,-0.26433 0.49648,-0.30191 1.14072,-0.051 1.36533,0.15549 1.36533,1.25537 0,1.98464 -4.77881,2.02257 -5.24757,0.0417 z M 86.368831,166.14756 c 0,-0.28962 0.433648,-0.52658 0.963662,-0.52658 0.530015,0 1.101744,0.23696 1.270508,0.52658 0.174027,0.29866 -0.243087,0.52658 -0.963662,0.52658 -0.698779,0 -1.270508,-0.23696 -1.270508,-0.52658 z m 69.011039,0 c 0,-0.28962 0.43365,-0.52658 0.96366,-0.52658 0.53002,0 1.10175,0.23696 1.27051,0.52658 0.17403,0.29866 -0.24309,0.52658 -0.96366,0.52658 -0.69878,0 -1.27051,-0.23696 -1.27051,-0.52658 z m 79.93364,0 c 0,-0.28962 0.55855,-0.52658 1.24121,-0.52658 0.68266,0 1.2412,0.23696 1.2412,0.52658 0,0.28962 -0.55854,0.52658 -1.2412,0.52658 -0.68266,0 -1.24121,-0.23696 -1.24121,-0.52658 z M 46.153769,145.37393 v -13.45407 h 12.660297 12.660298 v 2.36961 2.36961 H 61.79296 52.111556 v 3.40435 3.40435 l 5.088943,0.15007 5.088943,0.15006 v 2.36961 2.36961 l -5.070539,0.14985 -5.070538,0.14986 -0.142526,4.85265 -0.142524,4.85266 -2.854773,0.15792 -2.854773,0.15793 z m 23.362057,12.74329 c 0.01504,-0.36203 3.113142,-6.34529 6.884615,-13.29615 l 6.857224,-12.63792 2.920909,-0.14113 2.92091,-0.14113 6.809289,12.55641 c 8.575287,15.81293 8.106377,14.31814 4.491637,14.31814 -3.297379,0 -3.776102,-0.35242 -5.543624,-4.08099 l -1.060903,-2.23797 h -7.926478 -7.926478 l -1.503741,3.15948 -1.50374,3.15948 h -2.723508 c -1.862424,0 -2.714845,-0.20811 -2.696112,-0.65822 z m 19.351185,-15.26403 c -3.067958,-6.06676 -2.754677,-6.06026 -5.788889,-0.12019 l -2.545981,4.98426 h 5.397313 5.397319 z m 24.745329,15.55134 c -1.86839,-0.3053 -3.29532,-2.19071 -3.49151,-4.61333 l -0.16909,-2.08804 2.60654,-0.61987 2.60653,-0.61987 v 1.52312 1.5231 h 8.68844 8.68844 v -2.89619 -2.89619 l -8.31608,-0.003 c -12.37743,-0.004 -13.52914,-0.66817 -13.52914,-7.80005 0,-7.45634 0.91857,-7.99419 13.65326,-7.99419 11.04966,0 12.30997,0.35063 13.14975,3.65838 0.66687,2.62672 0.47808,2.99884 -1.87272,3.69131 -2.76714,0.8151 -3.08507,0.70888 -3.08507,-1.03073 v -1.57974 h -8.19196 -8.19196 v 2.89619 2.89619 h 9.1526 c 12.6564,0 12.93881,0.19937 12.61879,8.90819 -0.19749,5.37456 -0.61581,6.15555 -3.70405,6.91539 -1.86987,0.46007 -17.97068,0.56122 -20.61277,0.12949 z m 42.7605,-10.66099 v -11.08446 h -5.98634 -5.98633 l 0.15266,-2.23796 0.15267,-2.23797 14.52211,-0.13959 14.5221,-0.1396 v 2.37756 2.37756 h -5.69947 -5.69947 l -0.13419,10.92654 -0.1342,10.92653 -2.85477,0.15792 -2.85477,0.15793 z m 43.69043,-2.41296 v -13.46327 l 2.85478,0.15792 2.85477,0.15792 0.1344,10.66325 0.1344,10.66324 h 9.45009 9.45008 l -0.15132,2.50126 -0.15132,2.50125 -12.28794,0.14085 -12.28794,0.14084 z m 27.30653,13.09824 c 0,-0.22238 2.70946,-5.21154 6.02101,-11.08703 l 6.02102,-10.68271 h 2.37084 2.37084 l 6.19745,10.7675 c 6.7843,11.78713 6.65788,11.34886 3.2735,11.34886 -2.25706,0 -2.45264,-0.11844 -3.91296,-2.36961 l -1.53715,-2.36961 h -6.64584 -6.64585 l -1.41383,2.23797 c -1.32939,2.1043 -6.09903,3.78929 -6.09903,2.15463 z m 17.24802,-11.6722 c -3.2698,-6.23331 -2.88206,-6.11709 -5.24719,-1.57278 -1.13915,2.18874 -2.07119,4.12807 -2.07119,4.30963 0,0.18156 2.00862,0.33011 4.46361,0.33011 h 4.4636 z m 17.23081,11.34508 c -0.13407,-0.37056 -0.18292,-5.2875 -0.10854,-10.92654 l 0.13522,-10.25279 9.43317,-0.15897 c 10.45959,-0.17626 12.67426,0.19666 13.57148,2.28522 1.08443,2.52434 0.72853,5.43079 -0.873,7.12941 -0.79819,0.84658 -1.25372,1.53923 -1.0123,1.53923 2.2306,0 3.40224,6.55313 1.59472,8.91951 -1.581,2.06984 -22.04495,3.38809 -22.74075,1.46493 z m 17.68444,-4.084 c 1.0884,-0.61781 1.3086,-3.08753 0.36455,-4.0888 -0.40132,-0.42565 -2.66997,-0.6319 -6.95075,-0.6319 h -6.35497 v 2.28185 c 0,1.25502 0.14894,2.43982 0.33099,2.6329 0.53747,0.57005 11.56294,0.40039 12.61018,-0.19405 z m 0.10043,-9.1497 c 0.38526,-0.40861 0.64325,-1.29722 0.57332,-1.97467 -0.0699,-0.67745 -0.14577,-1.40946 -0.16853,-1.62667 -0.0228,-0.21722 -3.0575,-0.39494 -6.74388,-0.39494 h -6.70251 v 2.01856 c 0,1.11021 0.14894,2.17653 0.33099,2.36961 0.6929,0.73491 11.97621,0.38703 12.71061,-0.39189 z M 108.69458,122.19853 c 0.33116,-0.42321 1.02877,-0.91311 1.55024,-1.08865 1.32223,-0.4451 1.44512,0.12665 -3.64433,-16.95623 l -4.59246,-15.414729 -3.475384,-1.408143 c -4.344572,-1.76032 -4.123384,-1.502448 -6.688599,-7.798054 -2.3371,-5.735767 -2.335859,-5.678596 -0.247302,-11.378042 L 92.48305,65.73606 85.139427,51.830704 C 76.538632,35.544851 77.121869,36.46615 75.864553,37.179839 c -0.531768,0.301847 -1.346123,0.461882 -1.809678,0.355635 -0.979848,-0.224582 1.382082,-1.639531 6.20436,-3.716817 l 3.07533,-1.324754 9.729905,14.353287 9.72991,14.353286 3.78063,1.526934 3.78064,1.526933 2.38799,5.824277 2.38798,5.824275 -1.49897,4.094362 -1.49898,4.09437 3.00582,16.147063 c 1.6532,8.88088 3.06132,16.68478 3.12914,17.34198 0.10733,1.04004 -0.47071,1.46661 -4.4598,3.29113 -4.99342,2.28387 -6.08473,2.56697 -5.11425,1.32673 z m 74.4883,-19.44246 c 0,-3.248518 0.0458,-3.370718 1.36532,-3.639378 2.71538,-0.552874 3.80261,3.959078 1.24121,5.150948 -0.6144,0.28589 -1.11709,0.81905 -1.11709,1.18481 0,0.36575 -0.33512,0.665 -0.74472,0.665 -0.5842,0 -0.74472,-0.72455 -0.74472,-3.36138 z m 2.48241,-0.85126 c 0,-0.86886 -0.22342,-1.57974 -0.49648,-1.57974 -0.27307,0 -0.49649,0.71088 -0.49649,1.57974 0,0.86885 0.22342,1.57974 0.49649,1.57974 0.27306,0 0.49648,-0.71089 0.49648,-1.57974 z m 16.7377,3.88576 c -0.74478,-0.78992 -0.30278,-1.25935 0.88742,-0.94252 0.76478,0.20358 1.2412,0.10638 1.2412,-0.25326 0,-0.32101 -0.55854,-0.58366 -1.2412,-0.58366 -1.37458,0 -1.95289,-4.399848 -0.63934,-4.864238 2.17785,-0.769962 2.92184,0.16476 2.77147,3.482008 -0.1441,3.17895 -1.58288,4.68544 -3.01955,3.16167 z m 2.03903,-4.32194 c 0.10536,-0.75944 -0.1031,-1.14356 -0.6206,-1.14356 -0.50692,0 -0.77925,0.47541 -0.77925,1.36033 0,1.64963 1.16597,1.46907 1.39985,-0.21677 z m 29.71304,4.29776 c -0.68229,-0.72364 -0.2955,-1.28771 0.66197,-0.96539 0.56962,0.19175 0.99297,0.0946 0.99297,-0.22781 0,-0.30914 -0.42078,-0.56206 -0.93506,-0.56206 -0.8554,0 -1.52204,-1.29395 -1.54058,-2.99022 -0.0127,-1.158378 1.40101,-2.146098 2.69585,-1.883558 2.55468,0.51796 1.70036,6.980098 -0.9228,6.980098 -0.34175,0 -0.77031,-0.15798 -0.95235,-0.35106 z m 1.65494,-4.12487 c 0,-0.72405 -0.22342,-1.31645 -0.49649,-1.31645 -0.27306,0 -0.49648,0.5924 -0.49648,1.31645 0,0.72405 0.22342,1.31645 0.49648,1.31645 0.27307,0 0.49649,-0.5924 0.49649,-1.31645 z m 28.13399,4.12487 c -0.68228,-0.72364 -0.2955,-1.28771 0.66198,-0.96539 0.56962,0.19175 0.99296,0.0946 0.99296,-0.22781 0,-0.30914 -0.42293,-0.56206 -0.93984,-0.56206 -1.56573,0 -2.13021,-2.98757 -0.82587,-4.370978 1.63765,-1.736939 3.25516,-0.50262 3.25516,2.484018 0,3.30517 -1.65487,5.22205 -3.14439,3.64222 z m 1.65494,-4.12487 c 0,-0.72405 -0.22342,-1.31645 -0.49648,-1.31645 -0.27307,0 -0.49648,0.5924 -0.49648,1.31645 0,0.72405 0.22341,1.31645 0.49648,1.31645 0.27306,0 0.49648,-0.5924 0.49648,-1.31645 z m -134.44739,2.26429 c -0.71111,-0.75421 -0.78835,-2.001 -0.12397,-2.001 0.2595,0 0.67691,0.38871 0.92759,0.8638 0.25068,0.47509 0.70861,0.69807 1.01763,0.4955 0.91361,-0.59887 0.65032,-1.25687 -0.79739,-1.9928 -1.52919,-0.77736 -1.9982,-2.197568 -1.10337,-3.341147 0.79055,-1.010296 2.91259,-0.97928 3.28426,0.04802 0.39437,1.089979 -0.19732,1.639969 -0.92921,0.863689 -0.79507,-0.843263 -1.38188,-0.784655 -1.38188,0.13802 0,0.41862 0.61167,1.072068 1.35926,1.452108 1.65016,0.83884 2.0489,2.47048 0.83401,3.41268 -1.11289,0.8631 -2.30848,0.88678 -3.08693,0.0611 z m 4.95529,0.1753 c -0.93521,-0.62894 -0.55349,-4.296098 0.52152,-5.010228 0.66197,-0.439756 1.05457,-0.364124 1.70813,0.32906 0.96984,1.028628 0.53835,1.911058 -0.49129,1.004738 -0.84379,-0.742738 -1.33165,-0.26885 -1.33165,1.29352 0,1.32918 0.75149,2.1002 1.23621,1.26836 0.4547,-0.78034 1.24621,-0.65435 1.24621,0.19836 0,1.15638 -1.72064,1.70202 -2.88913,0.91619 z m 3.84072,0.23923 c -0.40899,-0.42976 0.13638,-7.15475 0.58022,-7.15475 0.24976,0 0.45412,0.471126 0.45412,1.046952 0,0.77184 0.29354,1.01399 1.11708,0.92151 1.01546,-0.11402 1.13074,0.12607 1.26715,2.639108 0.0914,1.68435 -0.0541,2.76455 -0.37236,2.76455 -0.28733,0 -0.52243,-0.94785 -0.52243,-2.10632 0,-1.52123 -0.20687,-2.10632 -0.74472,-2.10632 -0.53786,0 -0.74472,0.58509 -0.74472,2.10632 0,1.8559 -0.38927,2.56679 -1.03434,1.88895 z m 4.8407,-0.13369 c -0.62905,-0.66718 -0.33095,-4.259238 0.40741,-4.909178 0.96047,-0.845436 2.14603,-0.33719 2.72355,1.167568 l 0.45921,1.19648 0.32719,-1.16737 c 0.75971,-2.710438 3.69537,-1.815511 3.69537,1.12653 0,3.04598 -2.548,4.10992 -3.56581,1.48893 -0.50086,-1.28978 -0.58721,-1.33296 -0.78987,-0.39493 -0.34236,1.58463 -2.3169,2.48912 -3.25705,1.49197 z m 2.06933,-2.87933 c -0.0914,-0.68505 -0.38957,-1.19882 -0.66263,-1.14171 -0.63671,0.13316 -0.91729,1.55587 -0.5222,2.64788 0.44865,1.24002 1.39132,0.0416 1.18483,-1.50617 z m 4.30219,0.42196 c 0,-2.056158 -0.96547,-1.972148 -1.15251,0.10029 -0.11571,1.28218 0.0207,1.70408 0.49648,1.53585 0.36082,-0.12755 0.65603,-0.86382 0.65603,-1.63614 z m 2.23417,-0.87763 c 0,-2.10632 0.21278,-3.68606 0.49648,-3.68606 0.28371,0 0.49649,1.57974 0.49649,3.68606 0,2.10632 -0.21278,3.68606 -0.49649,3.68606 -0.2837,0 -0.49648,-1.57974 -0.49648,-3.68606 z m 4.56764,3.05416 c -0.84353,-0.89467 -0.73888,-3.35374 0.18441,-4.332998 0.923,-0.978958 0.98936,-0.987357 2.23134,-0.28238 1.84048,1.044708 1.01907,5.247278 -1.0256,5.247278 -0.43691,0 -1.06247,-0.28436 -1.39015,-0.6319 z m 1.88663,-2.29537 c 0,-1.11531 -0.20101,-1.742338 -0.49648,-1.54866 -0.27307,0.17899 -0.49648,1.02234 -0.49648,1.87411 0,0.85176 0.22341,1.54866 0.49648,1.54866 0.27306,0 0.49648,-0.84335 0.49648,-1.87411 z m 2.37088,0.42601 c -0.24619,-2.911398 0.27942,-4.87086 1.30658,-4.87086 0.72729,0 0.82374,2.246992 0.12811,2.9848 -0.18161,0.19261 -0.33019,1.25855 -0.33019,2.36876 0,2.87586 -0.85197,2.50353 -1.1045,-0.4827 z m 5.36006,1.67377 c -0.88645,-0.94019 -1.03408,-4.004378 -0.26624,-5.526087 0.92402,-1.831213 3.95439,-0.822376 3.95439,1.316449 0,0.674798 -1.4058,0.23548 -1.68106,-0.52534 -0.50936,-1.407845 -1.29783,-0.267883 -1.29783,1.876408 0,2.40417 0.70912,3.12617 1.51053,1.53795 0.37826,-0.74962 0.73288,-0.94891 1.06387,-0.59786 0.72021,0.76387 -0.40831,2.74597 -1.56344,2.74597 -0.51702,0 -1.29112,-0.37237 -1.72022,-0.82749 z m 4.78041,0.19559 c -0.32767,-0.34754 -0.59578,-1.40553 -0.59578,-2.35108 0,-2.954399 3.12778,-3.671764 3.79092,-0.86946 0.64208,2.71332 -1.57059,4.94357 -3.19514,3.22054 z m 1.88664,-1.96992 c 0,-0.85177 -0.22342,-1.69512 -0.49649,-1.87411 -0.29546,-0.193678 -0.49648,0.43335 -0.49648,1.54866 0,1.03076 0.22342,1.87411 0.49648,1.87411 0.27307,0 0.49649,-0.6969 0.49649,-1.54866 z m 2.30342,2.23645 c -0.77706,-0.82417 -0.32357,-4.900048 0.55135,-4.955378 0.47786,-0.0302 1.71784,-0.11096 2.7555,-0.17943 2.19162,-0.14462 2.98223,0.86961 2.73555,3.509278 -0.23982,2.56628 -1.39507,2.50704 -1.39507,-0.0715 0,-2.674978 -0.87731,-2.849478 -1.08711,-0.21623 -0.22134,2.77791 -1.3953,2.95984 -1.3953,0.21623 0,-1.18261 -0.22342,-2.1502 -0.49649,-2.1502 -0.27306,0 -0.49648,0.81538 -0.49648,1.81195 0,1.77207 -0.53846,2.70721 -1.17195,2.03532 z m 11.61463,-0.35429 c -0.8325,-0.88297 -0.64581,-4.546138 0.23169,-4.546138 0.53785,0 0.74472,0.58509 0.74472,2.106318 0,1.15847 0.22342,2.10632 0.49649,2.10632 0.27306,0 0.49648,-0.94785 0.49648,-2.10632 0,-1.521228 0.20687,-2.106318 0.74472,-2.106318 0.55926,0 0.74473,0.63384 0.74473,2.545128 0,2.62028 -1.86027,3.69648 -3.45883,2.00101 z m 4.78103,0.32472 c -0.24743,-0.43268 -0.50911,-4.06217 -0.39864,-5.529085 0.0784,-1.041017 1.5349,-1.280279 1.60278,-0.26329 0.35176,5.269795 -0.14273,7.648485 -1.20414,5.792375 z m 2.47066,0.0296 c -0.69727,-0.73957 -0.33451,-4.900458 0.42723,-4.900458 0.55019,0 0.74473,0.61089 0.74473,2.338528 0,2.22894 -0.48542,3.29006 -1.17196,2.5619 z m 1.99943,0.0143 c -0.18205,-0.19311 -0.33099,-1.35103 -0.33099,-2.57317 0,-2.157098 1.96507,-3.527989 3.5995,-2.511118 0.56271,0.35009 0.44658,5.435308 -0.12412,5.435308 -0.27307,0 -0.49649,-0.94785 -0.49649,-2.10632 0,-1.52123 -0.20687,-2.10632 -0.74472,-2.10632 -0.53785,0 -0.74472,0.58509 -0.74472,2.10632 0,1.97648 -0.39113,2.56911 -1.15846,1.75526 z m 11.40716,-0.0126 c -0.74601,-0.79128 -0.23932,-2.32746 0.92215,-2.79582 0.68266,-0.27528 1.2412,-0.74334 1.2412,-1.04013 0,-0.725678 -0.66026,-0.681848 -1.39015,0.0923 -0.46338,0.49148 -0.59578,0.44549 -0.59578,-0.20695 0,-1.125488 1.33179,-1.604647 2.54537,-0.915788 1.76666,1.002798 1.11609,4.802298 -0.86099,5.028358 -0.84851,0.097 -1.68632,0.0241 -1.8618,-0.162 z m 2.16335,-1.47937 c 0,-0.43443 -0.22341,-0.78987 -0.49648,-0.78987 -0.27306,0 -0.49648,0.35544 -0.49648,0.78987 0,0.43443 0.22342,0.78987 0.49648,0.78987 0.27307,0 0.49648,-0.35544 0.49648,-0.78987 z m 2.30342,1.47766 c -1.11587,-1.18353 -0.28152,-4.786498 1.16041,-5.010958 2.13336,-0.33209 2.57811,0.18554 2.40205,2.795618 -0.19083,2.82882 -1.09092,3.06551 -1.30339,0.34274 -0.19326,-2.476698 -1.08711,-2.610498 -1.08711,-0.16272 0,1.77207 -0.53847,2.70721 -1.17196,2.03532 z m 4.62188,-1.0221 c -0.25996,-0.72519 -0.33636,-1.89448 -0.16978,-2.59843 0.29118,-1.230458 0.7173,-1.503728 2.05704,-1.319208 0.34133,0.047 0.62061,-0.39883 0.62061,-0.990766 0,-0.591934 0.22341,-1.076246 0.49648,-1.076246 0.28265,0 0.49648,1.553027 0.49648,3.60592 v 3.60593 l -1.51409,0.0457 c -1.17938,0.0356 -1.61858,-0.24583 -1.98674,-1.27286 z m 2.50787,-1.5398 c 0,-0.7915 -0.28615,-1.28537 -0.74473,-1.28537 -0.74311,0 -1.06664,2.11593 -0.42723,2.79411 0.56274,0.59685 1.17196,-0.18744 1.17196,-1.50874 z m 4.17632,2.20627 c -0.94452,-2.61057 0.0355,-6.38783 1.65734,-6.38783 1.85992,0 2.42581,0.968365 0.71611,1.225405 -1.40331,0.210977 -1.17118,1.343757 0.32311,1.576785 1.29734,0.20232 0.92842,1.14716 -0.44792,1.14716 -0.53001,0 -0.96366,0.35544 -0.96366,0.78987 0,0.49147 0.4689,0.78987 1.24121,0.78987 0.7723,0 1.2412,0.29839 1.2412,0.78987 0,1.0371 -3.39463,1.09916 -3.76739,0.0689 z m 4.58136,0.35563 c -1.0485,-1.11207 -0.28751,-4.783758 1.04784,-5.055648 1.91816,-0.39055 2.60653,0.44392 2.60653,3.159768 0,2.90415 -1.16367,2.88963 -1.3953,-0.0174 -0.19494,-2.446718 -1.08711,-2.546858 -1.08711,-0.12201 0,1.77207 -0.53846,2.70721 -1.17196,2.03532 z m 9.11568,-2.26753 c 0,-1.4481 0.22341,-2.632898 0.49648,-2.632898 0.27306,0 0.49648,1.184798 0.49648,2.632898 0,1.44809 -0.22342,2.6329 -0.49648,2.6329 -0.27307,0 -0.49648,-1.18481 -0.49648,-2.6329 z m 2.30342,2.26753 c -1.03202,-1.09459 -0.28933,-4.783368 1.01637,-5.048098 2.24589,-0.455355 2.70241,0.033 2.53852,2.715288 -0.17847,2.92094 -1.07885,3.24071 -1.29582,0.46021 -0.19327,-2.476698 -1.08712,-2.610498 -1.08712,-0.16272 0,1.77207 -0.53846,2.70721 -1.17195,2.03532 z m 4.74663,-0.26653 c -1.25687,-1.33306 -0.22582,-5.16048 1.39015,-5.16048 0.67898,0 1.98592,1.58419 1.98592,2.40722 0,0.45135 -0.49648,0.75226 -1.2412,0.75226 -0.77231,0 -1.24121,0.29839 -1.24121,0.78987 0,0.95569 0.82218,1.05132 1.13186,0.13164 0.12191,-0.36202 0.39154,-0.49072 0.59919,-0.286 0.62641,0.61758 -0.14707,1.99739 -1.11969,1.99739 -0.50009,0 -1.17735,-0.28436 -1.50502,-0.6319 z m 4.49316,0.28315 c -0.90264,-0.3863 -0.77762,-4.12331 0.16574,-4.953688 0.99962,-0.8799 2.37434,-0.0663 2.59944,1.538508 0.12726,0.9072 -0.0938,1.13103 -1.11708,1.13103 -0.70166,0 -1.27574,0.22297 -1.27574,0.4955 0,0.76202 0.88571,1.16773 1.2362,0.56625 0.45471,-0.78034 1.24621,-0.65435 1.24621,0.19836 0,1.07909 -1.48307,1.61109 -2.85477,1.02404 z m 3.84774,-2.22276 c 0,-2.324788 0.11909,-2.595658 1.2412,-2.823168 1.36569,-0.27689 1.77421,0.85243 0.49648,1.372468 -0.46743,0.19024 -0.74472,0.99548 -0.74472,2.16265 0,1.02276 -0.22342,1.85956 -0.49648,1.85956 -0.27307,0 -0.49648,-1.15718 -0.49648,-2.57151 z m 2.97889,-0.0175 c 0,-2.070208 0.17492,-2.676748 0.77193,-2.676748 0.60969,0 0.74012,0.51705 0.6206,2.460088 -0.2161,3.51321 -1.39253,3.69628 -1.39253,0.21669 z m 2.30342,2.22365 c -1.04851,-1.11207 -0.28751,-4.783758 1.04784,-5.055638 1.94929,-0.396897 2.68147,0.48098 2.50699,3.005868 -0.18643,2.69771 -1.08944,2.82119 -1.29576,0.17718 -0.19327,-2.476678 -1.08711,-2.610478 -1.08711,-0.1627 0,1.77207 -0.53847,2.70721 -1.17196,2.03532 z m -63.86722,-6.4802 c 0,-0.289619 0.33513,-0.52658 0.74472,-0.52658 0.4096,0 0.74473,0.236961 0.74473,0.52658 0,0.289619 -0.33513,0.52658 -0.74473,0.52658 -0.40959,0 -0.74472,-0.236961 -0.74472,-0.52658 z M 154.21494,85.540638 c -6.88216,-1.182999 -8.45689,-4.516955 -8.68619,-18.390105 -0.17698,-10.707333 -0.35674,-11.584759 -2.37348,-11.584759 -0.64923,0 -1.18042,-0.198679 -1.18042,-0.44151 0,-0.242831 2.5693,-0.42472 5.70955,-0.4042 3.14025,0.02052 5.70954,0.219201 5.70954,0.441511 0,0.22231 -0.41948,0.404199 -0.93217,0.404199 -1.95245,0 -2.13068,1.06228 -1.9609,11.687664 0.2139,13.387753 1.48351,16.213818 7.28638,16.219105 6.4103,0.0058 7.69387,-2.668871 7.73318,-16.114493 0.0318,-10.897255 -0.16462,-11.792276 -2.58862,-11.792276 -0.69474,0 -1.09567,-0.17772 -0.89096,-0.394934 0.51698,-0.548549 9.72293,-0.594195 9.72293,-0.04821 0,0.24373 -0.43897,0.443144 -0.97549,0.443144 -1.6923,0 -2.0034,1.696983 -2.0034,10.927986 0,15.853892 -3.85181,20.88925 -14.56995,19.046878 z m 85.3871,-0.007 c -8.78981,-1.378139 -13.86512,-7.127997 -13.9025,-15.750254 -0.0503,-11.593111 8.05863,-16.998857 22.64663,-15.097261 l 3.35126,0.436848 v 3.907437 c 0,3.955024 -0.62315,5.210372 -1.16363,2.344152 -0.9967,-5.285571 -10.96056,-7.076538 -15.72312,-2.82617 -4.8833,4.358119 -5.09476,14.807389 -0.41407,20.461564 4.70369,5.681983 13.70379,5.880146 16.36261,0.360271 0.4397,-0.912871 0.9085,-1.544125 1.04176,-1.402786 0.39923,0.423427 -0.51022,5.547618 -1.12375,6.331696 -0.96561,1.234019 -6.87627,1.89286 -11.07519,1.234514 z m -44.99845,-0.61108 c -0.001,-0.217214 0.65544,-0.394935 1.45852,-0.394935 0.80308,0 1.57682,-0.200221 1.71942,-0.444934 0.25371,-0.435402 -1.53798,-16.964954 -2.00529,-18.500111 -0.13026,-0.42792 -2.33244,3.778137 -4.89372,9.346794 -2.56129,5.568656 -4.84489,10.124831 -5.07466,10.124831 -0.43155,0 -3.08091,-5.33773 -7.17555,-14.45676 -1.29447,-2.882888 -2.45581,-4.897056 -2.58075,-4.475931 -0.46048,1.55214 -2.23669,17.038757 -2.00068,17.44377 0.13431,0.230495 0.95931,0.638426 1.83333,0.906513 1.22577,0.375973 0.45391,0.481889 -3.3757,0.463206 -2.73065,-0.01332 -4.45663,-0.127675 -3.83551,-0.254122 1.95855,-0.398716 2.45088,-2.19389 4.30228,-15.687365 1.94058,-14.143459 2.12741,-15.150592 2.76485,-14.90487 0.22918,0.08835 2.87134,5.373773 5.87145,11.74539 l 5.45476,11.58476 4.62498,-10.134298 c 4.09203,-8.966486 4.74075,-10.097717 5.62962,-9.816859 1.84818,0.583971 2.12962,1.480002 2.95861,9.419557 1.68558,16.143547 1.89952,17.359246 3.08653,17.538673 1.33675,0.202064 1.81454,-5.136419 1.56971,-17.538673 l -0.15594,-7.898699 -2.73065,-1.434661 c -1.50186,-0.789064 -5.12247,-2.622606 -8.0458,-4.074538 -5.94175,-2.951089 -7.84322,-4.997111 -7.83977,-8.435761 l 0.002,-1.852437 0.95766,1.665773 c 1.14474,1.99118 5.05331,4.39584 13.09002,8.053326 9.07471,4.12994 9.28315,4.376079 9.28315,10.962314 v 4.044591 l 4.12261,-4.349814 c 4.41678,-4.660202 6.15364,-7.185627 5.31843,-7.733105 -0.2774,-0.181837 -0.50436,-0.507854 -0.50436,-0.724484 0,-0.510544 8.74568,-0.448662 9.23027,0.06531 0.20261,0.214893 -0.18366,0.390714 -0.85837,0.390714 -1.86469,0 -5.19746,2.559465 -9.81759,7.539623 l -4.17634,4.501778 3.02254,3.589384 c 6.19156,7.352725 10.74534,11.733685 13.29303,12.788546 l 2.46324,1.019885 -4.26973,0.02464 c -5.35699,0.03091 -6.25426,-0.585004 -12.87107,-8.834998 l -4.70442,-5.865596 -0.39982,5.894272 c -0.4842,7.138133 -0.28316,8.30436 1.43154,8.30436 0.70902,0 1.12756,0.229083 0.95611,0.52331 -0.35603,0.610991 -17.12641,0.485301 -17.12892,-0.128375 z m 13.56471,-29.7561 c -0.67085,-0.967674 -2.36336,-2.134281 -4.46834,-3.079922 -14.16024,-6.361355 -18.03467,-9.376794 -18.03467,-14.036248 v -2.734506 l 1.50249,1.933289 c 1.96086,2.523077 5.82899,4.975723 13.15446,8.340802 7.73944,3.555238 9.69737,5.690073 9.09801,9.920031 -0.16915,1.193751 -0.19033,1.187941 -1.25195,-0.343397 z"
       id="path1270" />
  </g>
</svg>
